<mxfile host="app.diagrams.net" modified="2023-10-06T13:01:51.334Z" agent="Mozilla/5.0 (Windows NT 10.0; Win64; x64) AppleWebKit/537.36 (KHTML, like Gecko) Chrome/117.0.0.0 Safari/537.36" etag="RR7HvlaYakDpJqLtsqyu" version="22.0.3" type="device">
  <diagram name="Page-1" id="MwcdL9Vb3BRfiHf-fj_l">
    <mxGraphModel dx="1663" dy="328" grid="1" gridSize="10" guides="1" tooltips="1" connect="1" arrows="1" fold="1" page="1" pageScale="1" pageWidth="1100" pageHeight="850" math="0" shadow="0">
      <root>
        <mxCell id="0" />
        <mxCell id="1" parent="0" />
        <mxCell id="VgtloxT1rA0sb-Q-85I4-1" value="" style="swimlane;startSize=0;" vertex="1" parent="1">
          <mxGeometry x="-140" y="40" width="700" height="340" as="geometry" />
        </mxCell>
        <mxCell id="VgtloxT1rA0sb-Q-85I4-10" value="" style="rounded=0;whiteSpace=wrap;html=1;" vertex="1" parent="VgtloxT1rA0sb-Q-85I4-1">
          <mxGeometry x="240" y="10" width="120" height="50" as="geometry" />
        </mxCell>
        <mxCell id="VgtloxT1rA0sb-Q-85I4-2" value="" style="rounded=0;whiteSpace=wrap;html=1;" vertex="1" parent="VgtloxT1rA0sb-Q-85I4-1">
          <mxGeometry x="470" y="80" width="120" height="60" as="geometry" />
        </mxCell>
        <mxCell id="VgtloxT1rA0sb-Q-85I4-3" value="" style="rounded=0;whiteSpace=wrap;html=1;" vertex="1" parent="VgtloxT1rA0sb-Q-85I4-1">
          <mxGeometry x="300" y="80" width="120" height="60" as="geometry" />
        </mxCell>
        <mxCell id="VgtloxT1rA0sb-Q-85I4-4" value="" style="rounded=0;whiteSpace=wrap;html=1;" vertex="1" parent="VgtloxT1rA0sb-Q-85I4-1">
          <mxGeometry x="140" y="80" width="120" height="60" as="geometry" />
        </mxCell>
        <mxCell id="VgtloxT1rA0sb-Q-85I4-6" value="" style="rounded=0;whiteSpace=wrap;html=1;" vertex="1" parent="VgtloxT1rA0sb-Q-85I4-1">
          <mxGeometry x="10" y="80" width="100" height="60" as="geometry" />
        </mxCell>
        <mxCell id="VgtloxT1rA0sb-Q-85I4-5" value="" style="rounded=0;whiteSpace=wrap;html=1;" vertex="1" parent="VgtloxT1rA0sb-Q-85I4-1">
          <mxGeometry x="100" y="250" width="120" height="60" as="geometry" />
        </mxCell>
        <mxCell id="VgtloxT1rA0sb-Q-85I4-7" value="" style="rounded=0;whiteSpace=wrap;html=1;" vertex="1" parent="VgtloxT1rA0sb-Q-85I4-1">
          <mxGeometry x="250" y="220" width="120" height="60" as="geometry" />
        </mxCell>
        <mxCell id="VgtloxT1rA0sb-Q-85I4-9" value="" style="rounded=0;whiteSpace=wrap;html=1;" vertex="1" parent="1">
          <mxGeometry x="-300" y="120" width="120" height="60" as="geometry" />
        </mxCell>
        <mxCell id="VgtloxT1rA0sb-Q-85I4-12" value="" style="endArrow=classic;html=1;rounded=0;" edge="1" parent="1">
          <mxGeometry width="50" height="50" relative="1" as="geometry">
            <mxPoint x="90" y="210" as="sourcePoint" />
            <mxPoint x="140" y="160" as="targetPoint" />
          </mxGeometry>
        </mxCell>
      </root>
    </mxGraphModel>
  </diagram>
</mxfile>
